<svg xmlns="http://www.w3.org/2000/svg" xmlns:xlink="http://www.w3.org/1999/xlink" version="1.1" viewBox="37.5 49.95 135 50.11"><g id="surface1"><path style=" stroke:none;fill-rule:nonzero;fill:rgb(100%,100%,100%);fill-opacity:1;" d="M 37.5 75 L 37.5 100.050781 L 172.5 100.050781 L 172.5 49.945312 L 37.5 49.945312 Z M 170.246094 75 L 170.246094 97.796875 L 105.035156 97.773438 L 39.816406 97.738281 L 39.78125 74.964844 L 39.757812 52.203125 L 170.246094 52.203125 Z M 170.246094 75 "></path><path style=" stroke:none;fill-rule:nonzero;fill:rgb(100%,100%,100%);fill-opacity:1;" d="M 49.136719 62.105469 L 49.136719 62.746094 L 49.644531 62.828125 C 49.917969 62.867188 50.324219 62.9375 50.535156 62.972656 L 50.917969 63.03125 L 50.894531 74.988281 L 50.859375 86.933594 L 50.003906 87.027344 L 49.136719 87.132812 L 49.136719 88.535156 L 58.160156 88.535156 L 58.160156 87.132812 L 57.304688 87.027344 L 56.4375 86.933594 L 56.402344 81.496094 L 56.378906 76.070312 L 68.253906 76.070312 L 68.253906 81.457031 C 68.253906 85.957031 68.226562 86.859375 68.085938 86.910156 C 67.992188 86.945312 67.539062 87.015625 67.078125 87.0625 L 66.234375 87.144531 L 66.234375 88.535156 L 75.496094 88.535156 L 75.496094 87.132812 L 74.699219 87.050781 C 74.273438 87.003906 73.84375 86.945312 73.75 86.910156 C 73.617188 86.859375 73.59375 84.722656 73.59375 74.941406 L 73.59375 63.03125 L 74.070312 62.960938 C 74.332031 62.925781 74.757812 62.851562 75.019531 62.816406 L 75.496094 62.746094 L 75.496094 61.464844 L 66.234375 61.464844 L 66.234375 62.746094 L 66.804688 62.816406 C 67.113281 62.867188 67.5625 62.925781 67.8125 62.960938 L 68.253906 63.03125 L 68.253906 73.21875 L 56.378906 73.21875 L 56.378906 63.03125 L 56.890625 62.949219 C 58.289062 62.734375 58.160156 62.816406 58.160156 62.105469 L 58.160156 61.464844 L 49.136719 61.464844 Z M 49.136719 62.105469 "></path><path style=" stroke:none;fill-rule:nonzero;fill:rgb(100%,100%,100%);fill-opacity:1;" d="M 82.488281 61.796875 C 80.019531 63.078125 81.003906 66.808594 83.804688 66.808594 C 84.648438 66.808594 85.300781 66.5 85.847656 65.871094 C 86.738281 64.824219 86.738281 63.445312 85.835938 62.402344 C 85.003906 61.417969 83.664062 61.179688 82.488281 61.796875 Z M 82.488281 61.796875 "></path><path style=" stroke:none;fill-rule:nonzero;fill:rgb(100%,100%,100%);fill-opacity:1;" d="M 91.761719 62.046875 L 91.761719 62.628906 L 92.570312 62.722656 L 93.363281 62.828125 L 93.398438 74.964844 L 93.421875 87.085938 L 93.101562 87.15625 C 92.914062 87.195312 92.542969 87.253906 92.273438 87.289062 L 91.761719 87.371094 L 91.761719 88.535156 L 100.191406 88.535156 L 100.191406 87.371094 L 99.691406 87.289062 C 99.40625 87.253906 99.039062 87.195312 98.863281 87.15625 L 98.527344 87.085938 L 98.527344 61.464844 L 91.761719 61.464844 Z M 91.761719 62.046875 "></path><path style=" stroke:none;fill-rule:nonzero;fill:rgb(100%,100%,100%);fill-opacity:1;" d="M 108.0625 64.480469 L 105.652344 65.203125 L 105.652344 69.300781 L 101.972656 69.300781 L 101.972656 71.082031 L 105.523438 71.082031 L 105.558594 78.289062 C 105.605469 86.316406 105.605469 86.230469 106.425781 87.371094 C 107.671875 89.082031 111.398438 89.257812 115.839844 87.8125 L 116.578125 87.5625 L 116.578125 86.253906 L 116.21875 86.339844 C 116.019531 86.386719 115.175781 86.421875 114.34375 86.421875 C 112.183594 86.433594 111.496094 86.171875 110.972656 85.117188 L 110.699219 84.558594 L 110.664062 77.8125 L 110.628906 71.082031 L 115.152344 71.082031 L 115.152344 69.300781 L 110.640625 69.300781 L 110.640625 66.511719 C 110.640625 64.980469 110.605469 63.71875 110.558594 63.730469 C 110.496094 63.742188 109.382812 64.078125 108.0625 64.480469 Z M 108.0625 64.480469 "></path><path style=" stroke:none;fill-rule:nonzero;fill:rgb(100%,100%,100%);fill-opacity:1;" d="M 126.3125 68.777344 C 124.53125 69.015625 122.3125 69.90625 121.066406 70.890625 C 119.605469 72.054688 118.429688 73.90625 117.882812 75.890625 C 117.515625 77.21875 117.417969 80.175781 117.691406 81.753906 C 118.085938 83.964844 118.726562 85.328125 120.019531 86.636719 C 121.5625 88.191406 123.6875 88.949219 126.90625 89.082031 C 130.300781 89.234375 133.082031 88.332031 135.097656 86.433594 C 137.011719 84.640625 137.902344 82.5625 138.03125 79.628906 C 138.113281 77.765625 137.9375 76.351562 137.425781 74.855469 C 136.902344 73.300781 136.40625 72.507812 135.277344 71.378906 C 134.503906 70.59375 134.113281 70.320312 133.199219 69.859375 C 131.644531 69.097656 130.445312 68.824219 128.390625 68.765625 C 127.476562 68.742188 126.539062 68.753906 126.3125 68.777344 Z M 128.449219 70.25 C 129.839844 70.511719 130.789062 71.308594 131.476562 72.804688 C 132.226562 74.417969 132.488281 75.984375 132.488281 78.964844 C 132.488281 84.914062 131.039062 87.597656 127.796875 87.609375 C 126.621094 87.621094 125.765625 87.289062 125.042969 86.527344 C 123.535156 84.984375 122.796875 81.398438 123.105469 77.195312 C 123.414062 72.980469 124.6875 70.703125 126.941406 70.25 C 127.640625 70.121094 127.75 70.121094 128.449219 70.25 Z M 128.449219 70.25 "></path><path style=" stroke:none;fill-rule:nonzero;fill:rgb(100%,100%,100%);fill-opacity:1;" d="M 152.8125 68.957031 C 151.328125 69.144531 149.5 69.964844 147.945312 71.140625 C 147.472656 71.496094 147.019531 71.792969 146.960938 71.792969 C 146.902344 71.792969 146.855469 71.234375 146.855469 70.546875 L 146.855469 69.300781 L 140.085938 69.300781 L 140.085938 70.582031 L 140.65625 70.652344 C 140.964844 70.703125 141.355469 70.761719 141.546875 70.796875 L 141.867188 70.867188 L 141.867188 87.085938 L 141.191406 87.15625 C 140.085938 87.289062 140.085938 87.289062 140.085938 87.953125 L 140.085938 88.535156 L 148.632812 88.535156 L 148.632812 87.941406 C 148.632812 87.609375 148.597656 87.347656 148.550781 87.335938 C 148.492188 87.324219 148.113281 87.265625 147.683594 87.183594 L 146.914062 87.050781 L 146.914062 73.277344 L 147.507812 72.886719 C 147.839844 72.671875 148.527344 72.328125 149.050781 72.125 C 149.871094 71.792969 150.144531 71.746094 151.070312 71.734375 C 152.246094 71.734375 152.789062 71.9375 153.40625 72.589844 C 154.347656 73.574219 154.476562 74.679688 154.429688 81.648438 L 154.394531 87.050781 L 153.621094 87.183594 C 153.195312 87.265625 152.8125 87.324219 152.765625 87.335938 C 152.707031 87.347656 152.671875 87.609375 152.671875 87.941406 L 152.671875 88.535156 L 161.21875 88.535156 L 161.21875 87.953125 C 161.21875 87.289062 161.21875 87.289062 160.128906 87.171875 L 159.453125 87.085938 L 159.414062 80.175781 C 159.378906 73.335938 159.367188 73.265625 159.09375 72.445312 C 158.726562 71.320312 158.371094 70.738281 157.660156 70.097656 C 156.957031 69.46875 156.066406 69.097656 154.878906 68.945312 C 153.929688 68.8125 153.847656 68.8125 152.8125 68.957031 Z M 152.8125 68.957031 "></path><path style=" stroke:none;fill-rule:nonzero;fill:rgb(100%,100%,100%);fill-opacity:1;" d="M 79.53125 69.882812 L 79.53125 70.464844 L 80.101562 70.535156 C 80.410156 70.582031 80.800781 70.640625 80.992188 70.679688 L 81.3125 70.75 L 81.289062 78.894531 L 81.253906 87.050781 L 80.480469 87.183594 C 80.054688 87.265625 79.675781 87.324219 79.625 87.335938 C 79.566406 87.347656 79.53125 87.609375 79.53125 87.941406 L 79.53125 88.535156 L 88.09375 88.535156 L 88.058594 87.988281 C 88.007812 87.335938 87.925781 87.265625 86.988281 87.171875 L 86.300781 87.097656 L 86.300781 69.300781 L 79.53125 69.300781 Z M 79.53125 69.882812 "></path></g></svg>
